<svg width="106" height="25" viewBox="0 0 106 25" fill="none" xmlns="http://www.w3.org/2000/svg">
<path d="M21 6L13.4531 24H12.4688L9.84375 17.1562L3 14.5312V13.5469L21 6Z" fill="#7C7C7C"/>
<path d="M31.77 5.27L34.05 9.35L36.33 5.27L36.85 10H37.7L36.85 2.65L34.05 7.72L31.25 2.65L30.4 10H31.25L31.77 5.27ZM38.9557 7.9H42.8857C42.8924 7.86 42.8957 7.82 42.8957 7.78C42.8957 7.74 42.8957 7.7 42.8957 7.66C42.8957 7.17333 42.8057 6.75667 42.6257 6.41C42.4457 6.05667 42.1924 5.78333 41.8657 5.59C41.539 5.39667 41.159 5.3 40.7257 5.3C40.3324 5.3 39.9757 5.38 39.6557 5.54C39.3424 5.7 39.0857 5.92333 38.8857 6.21C38.6857 6.49667 38.5524 6.83 38.4857 7.21C38.4724 7.29 38.4624 7.37 38.4557 7.45C38.449 7.53 38.4457 7.61333 38.4457 7.7C38.4457 8.16 38.539 8.57333 38.7257 8.94C38.919 9.3 39.179 9.58333 39.5057 9.79C39.839 9.99667 40.2124 10.1 40.6257 10.1C41.0257 10.1 41.359 10.0533 41.6257 9.96C41.8924 9.86 42.119 9.72333 42.3057 9.55C42.4924 9.37 42.6624 9.16333 42.8157 8.93L42.1657 8.52C42.0657 8.68667 41.9457 8.83333 41.8057 8.96C41.6657 9.08 41.5057 9.17667 41.3257 9.25C41.1524 9.31667 40.9524 9.35 40.7257 9.35C40.4257 9.35 40.1657 9.28667 39.9457 9.16C39.7257 9.03333 39.5557 8.84667 39.4357 8.6C39.3157 8.35333 39.2557 8.05333 39.2557 7.7L39.2757 7.4C39.2757 7.11333 39.339 6.86667 39.4657 6.66C39.599 6.44667 39.7757 6.28333 39.9957 6.17C40.2157 6.05667 40.459 6 40.7257 6C40.9924 6 41.2157 6.05333 41.3957 6.16C41.5824 6.26 41.7257 6.40333 41.8257 6.59C41.9324 6.77 41.999 6.98 42.0257 7.22H38.9557V7.9ZM44.3522 7.7C44.3522 7.38 44.4189 7.09667 44.5522 6.85C44.6922 6.59667 44.8789 6.4 45.1122 6.26C45.3522 6.12 45.6222 6.05 45.9222 6.05C46.1689 6.05 46.3989 6.09 46.6122 6.17C46.8322 6.24333 47.0222 6.34333 47.1822 6.47C47.3422 6.59667 47.4555 6.73667 47.5222 6.89V5.89C47.3622 5.70333 47.1322 5.56 46.8322 5.46C46.5389 5.35333 46.2355 5.3 45.9222 5.3C45.4755 5.3 45.0722 5.40333 44.7122 5.61C44.3522 5.81667 44.0655 6.1 43.8522 6.46C43.6455 6.82 43.5422 7.23333 43.5422 7.7C43.5422 8.16 43.6455 8.57333 43.8522 8.94C44.0655 9.3 44.3522 9.58333 44.7122 9.79C45.0722 9.99667 45.4755 10.1 45.9222 10.1C46.2355 10.1 46.5389 10.05 46.8322 9.95C47.1322 9.84333 47.3622 9.69667 47.5222 9.51V8.51C47.4555 8.65667 47.3422 8.79667 47.1822 8.93C47.0222 9.05667 46.8322 9.16 46.6122 9.24C46.3989 9.31333 46.1689 9.35 45.9222 9.35C45.6222 9.35 45.3522 9.28 45.1122 9.14C44.8789 8.99333 44.6922 8.79667 44.5522 8.55C44.4189 8.30333 44.3522 8.02 44.3522 7.7ZM48.0676 5.4V6.15H50.7676V5.4H48.0676ZM49.0176 5.6V10H49.8176V5.6H49.0176ZM51.0238 7.7C51.0238 8.16 51.1272 8.57333 51.3338 8.94C51.5472 9.3 51.8338 9.58333 52.1938 9.79C52.5538 9.99667 52.9572 10.1 53.4038 10.1C53.8572 10.1 54.2605 9.99667 54.6138 9.79C54.9738 9.58333 55.2572 9.3 55.4638 8.94C55.6772 8.57333 55.7838 8.16 55.7838 7.7C55.7838 7.23333 55.6772 6.82 55.4638 6.46C55.2572 6.1 54.9738 5.81667 54.6138 5.61C54.2605 5.40333 53.8572 5.3 53.4038 5.3C52.9572 5.3 52.5538 5.40333 52.1938 5.61C51.8338 5.81667 51.5472 6.1 51.3338 6.46C51.1272 6.82 51.0238 7.23333 51.0238 7.7ZM51.8338 7.7C51.8338 7.38 51.9005 7.09667 52.0338 6.85C52.1738 6.59667 52.3605 6.4 52.5938 6.26C52.8338 6.12 53.1038 6.05 53.4038 6.05C53.7038 6.05 53.9705 6.12 54.2038 6.26C54.4438 6.4 54.6305 6.59667 54.7638 6.85C54.9038 7.09667 54.9738 7.38 54.9738 7.7C54.9738 8.02 54.9038 8.30333 54.7638 8.55C54.6305 8.79667 54.4438 8.99333 54.2038 9.14C53.9705 9.28 53.7038 9.35 53.4038 9.35C53.1038 9.35 52.8338 9.28 52.5938 9.14C52.3605 8.99333 52.1738 8.79667 52.0338 8.55C51.9005 8.30333 51.8338 8.02 51.8338 7.7ZM63.6309 5.4H59.8809V10H60.6809V6.15H62.8309V10H63.6309V5.4ZM64.7348 7.7C64.7348 8.16 64.8381 8.57333 65.0448 8.94C65.2581 9.3 65.5448 9.58333 65.9048 9.79C66.2648 9.99667 66.6681 10.1 67.1148 10.1C67.5681 10.1 67.9714 9.99667 68.3248 9.79C68.6848 9.58333 68.9681 9.3 69.1748 8.94C69.3881 8.57333 69.4948 8.16 69.4948 7.7C69.4948 7.23333 69.3881 6.82 69.1748 6.46C68.9681 6.1 68.6848 5.81667 68.3248 5.61C67.9714 5.40333 67.5681 5.3 67.1148 5.3C66.6681 5.3 66.2648 5.40333 65.9048 5.61C65.5448 5.81667 65.2581 6.1 65.0448 6.46C64.8381 6.82 64.7348 7.23333 64.7348 7.7ZM65.5448 7.7C65.5448 7.38 65.6114 7.09667 65.7448 6.85C65.8848 6.59667 66.0714 6.4 66.3048 6.26C66.5448 6.12 66.8148 6.05 67.1148 6.05C67.4148 6.05 67.6814 6.12 67.9148 6.26C68.1548 6.4 68.3414 6.59667 68.4748 6.85C68.6148 7.09667 68.6848 7.38 68.6848 7.7C68.6848 8.02 68.6148 8.30333 68.4748 8.55C68.3414 8.79667 68.1548 8.99333 67.9148 9.14C67.6814 9.28 67.4148 9.35 67.1148 9.35C66.8148 9.35 66.5448 9.28 66.3048 9.14C66.0714 8.99333 65.8848 8.79667 65.7448 8.55C65.6114 8.30333 65.5448 8.02 65.5448 7.7ZM74.6238 5.4H70.6738V8.4C70.6738 8.72667 70.6004 8.95333 70.4538 9.08C70.3138 9.20667 70.1438 9.27 69.9438 9.27V10C70.2904 10 70.5771 9.94333 70.8038 9.83C71.0304 9.71 71.1971 9.53333 71.3038 9.3C71.4171 9.06 71.4738 8.76 71.4738 8.4V6.15H73.8238V10H74.6238V5.4ZM79.8199 5.4H78.9199L77.4999 8.96L77.8299 9L76.3699 5.4H75.4199L77.1799 9.35L75.9199 12.2H76.8199L79.8199 5.4ZM82.1242 8.6H83.6942V7.85H82.1242V8.6ZM83.1242 5.4V10H83.9242V5.4H83.1242ZM81.1242 5.4H80.3242V6.72C80.3242 7.16667 80.3776 7.53 80.4842 7.81C80.5909 8.08333 80.7742 8.28333 81.0342 8.41C81.3009 8.53667 81.6642 8.6 82.1242 8.6V7.85C81.8709 7.85 81.6709 7.81333 81.5242 7.74C81.3776 7.66 81.2742 7.53667 81.2142 7.37C81.1542 7.20333 81.1242 6.98667 81.1242 6.72V5.4ZM85.5377 7.9H89.4677C89.4744 7.86 89.4777 7.82 89.4777 7.78C89.4777 7.74 89.4777 7.7 89.4777 7.66C89.4777 7.17333 89.3877 6.75667 89.2077 6.41C89.0277 6.05667 88.7744 5.78333 88.4477 5.59C88.1211 5.39667 87.7411 5.3 87.3077 5.3C86.9144 5.3 86.5577 5.38 86.2377 5.54C85.9244 5.7 85.6677 5.92333 85.4677 6.21C85.2677 6.49667 85.1344 6.83 85.0677 7.21C85.0544 7.29 85.0444 7.37 85.0377 7.45C85.0311 7.53 85.0277 7.61333 85.0277 7.7C85.0277 8.16 85.1211 8.57333 85.3077 8.94C85.5011 9.3 85.7611 9.58333 86.0877 9.79C86.4211 9.99667 86.7944 10.1 87.2077 10.1C87.6077 10.1 87.9411 10.0533 88.2077 9.96C88.4744 9.86 88.7011 9.72333 88.8877 9.55C89.0744 9.37 89.2444 9.16333 89.3977 8.93L88.7477 8.52C88.6477 8.68667 88.5277 8.83333 88.3877 8.96C88.2477 9.08 88.0877 9.17667 87.9077 9.25C87.7344 9.31667 87.5344 9.35 87.3077 9.35C87.0077 9.35 86.7477 9.28667 86.5277 9.16C86.3077 9.03333 86.1377 8.84667 86.0177 8.6C85.8977 8.35333 85.8377 8.05333 85.8377 7.7L85.8577 7.4C85.8577 7.11333 85.9211 6.86667 86.0477 6.66C86.1811 6.44667 86.3577 6.28333 86.5777 6.17C86.7977 6.05667 87.0411 6 87.3077 6C87.5744 6 87.7977 6.05333 87.9777 6.16C88.1644 6.26 88.3077 6.40333 88.4077 6.59C88.5144 6.77 88.5811 6.98 88.6077 7.22H85.5377V7.9ZM91.0442 7.95H94.4442V7.2H91.0442V7.95ZM93.9242 5.4V10H94.7242V5.4H93.9242ZM90.5742 5.4V10H91.3742V5.4H90.5742ZM100.079 6.2L100.129 5.05L96.3285 9.2L96.2785 10.35L100.079 6.2ZM97.0785 5.4H96.2785V10.35L97.0785 9.25V5.4ZM100.129 5.05L99.3285 6.15V10H100.129V5.05ZM102.338 10L104.038 7.6H103.158L101.458 10H102.338ZM105.258 10V5.4H104.458V10H105.258ZM104.788 7.46H103.358C103.164 7.46 103.001 7.43667 102.868 7.39C102.741 7.33667 102.644 7.26 102.578 7.16C102.511 7.06 102.478 6.93333 102.478 6.78C102.478 6.62667 102.511 6.5 102.578 6.4C102.644 6.3 102.741 6.22667 102.868 6.18C103.001 6.12667 103.164 6.1 103.358 6.1H104.788V5.4H103.358C103.044 5.4 102.758 5.44667 102.498 5.54C102.244 5.63333 102.044 5.78 101.898 5.98C101.751 6.18 101.678 6.44667 101.678 6.78C101.678 7.10667 101.751 7.37333 101.898 7.58C102.044 7.78 102.244 7.92667 102.498 8.02C102.758 8.11333 103.044 8.16 103.358 8.16H104.788V7.46Z" fill="#7C7C7C"/>
</svg>
