<svg width="13" height="14" viewBox="0 0 13 14" fill="none" xmlns="http://www.w3.org/2000/svg">
<path d="M0.722222 14C0.517593 14 0.346065 13.9329 0.207639 13.7987C0.0692129 13.6646 0 13.4983 0 13.3V9.4675C0 9.17583 0.105324 8.92792 0.315972 8.72375C0.52662 8.51958 0.782407 8.4175 1.08333 8.4175H1.57083V5.2325C1.57083 4.94083 1.67616 4.69292 1.88681 4.48875C2.09745 4.28458 2.35324 4.1825 2.65417 4.1825H5.95833V3.0625C5.71759 2.89917 5.53403 2.72125 5.40764 2.52875C5.28125 2.33625 5.21806 2.10583 5.21806 1.8375C5.21806 1.6625 5.25116 1.49625 5.31736 1.33875C5.38356 1.18125 5.47685 1.04417 5.59722 0.9275L6.5 0L7.40278 0.9275C7.52315 1.04417 7.61944 1.18125 7.69167 1.33875C7.76389 1.49625 7.8 1.6625 7.8 1.8375C7.8 2.10583 7.7338 2.33625 7.60139 2.52875C7.46898 2.72125 7.28241 2.89917 7.04167 3.0625V4.1825H10.3458C10.6468 4.1825 10.9025 4.28458 11.1132 4.48875C11.3238 4.69292 11.4292 4.94083 11.4292 5.2325V8.4175H11.9167C12.2176 8.4175 12.4734 8.51958 12.684 8.72375C12.8947 8.92792 13 9.17583 13 9.4675V13.3C13 13.4983 12.9308 13.6646 12.7924 13.7987C12.6539 13.9329 12.4824 14 12.2778 14H0.722222ZM2.65417 8.4175H10.3458V5.2325H2.65417V8.4175ZM1.08333 12.95H11.9167V9.4675H1.08333V12.95Z" fill="#BCFFF7"/>
</svg>
