<svg width="48" height="48" viewBox="0 0 48 48" fill="none" xmlns="http://www.w3.org/2000/svg">
<path d="M8 44C7.43333 44 6.95833 43.8083 6.575 43.425C6.19167 43.0417 6 42.5667 6 42V31.05C6 30.2167 6.29167 29.5083 6.875 28.925C7.45833 28.3417 8.16667 28.05 9 28.05H10.35V18.95C10.35 18.1167 10.6417 17.4083 11.225 16.825C11.8083 16.2417 12.5167 15.95 13.35 15.95H22.5V12.75C21.8333 12.2833 21.325 11.775 20.975 11.225C20.625 10.675 20.45 10.0167 20.45 9.25C20.45 8.75 20.5417 8.275 20.725 7.825C20.9083 7.375 21.1667 6.98333 21.5 6.65L24 4L26.5 6.65C26.8333 6.98333 27.1 7.375 27.3 7.825C27.5 8.275 27.6 8.75 27.6 9.25C27.6 10.0167 27.4167 10.675 27.05 11.225C26.6833 11.775 26.1667 12.2833 25.5 12.75V15.95H34.65C35.4833 15.95 36.1917 16.2417 36.775 16.825C37.3583 17.4083 37.65 18.1167 37.65 18.95V28.05H39C39.8333 28.05 40.5417 28.3417 41.125 28.925C41.7083 29.5083 42 30.2167 42 31.05V42C42 42.5667 41.8083 43.0417 41.425 43.425C41.0417 43.8083 40.5667 44 40 44H8ZM13.35 28.05H34.65V18.95H13.35V28.05ZM9 41H39V31.05H9V41Z" fill="#B5B5B5"/>
</svg>
