<svg width="37" height="40" viewBox="0 0 37 40" fill="none" xmlns="http://www.w3.org/2000/svg">
<path d="M2.04027 40C1.46219 40 0.977628 39.8083 0.586577 39.425C0.195526 39.0417 0 38.5667 0 38V27.05C0 26.2167 0.297539 25.5083 0.892617 24.925C1.4877 24.3417 2.21029 24.05 3.0604 24.05H4.43758V14.95C4.43758 14.1167 4.73512 13.4083 5.3302 12.825C5.92528 12.2417 6.64788 11.95 7.49799 11.95H16.8322V8.75C16.1521 8.28333 15.6336 7.775 15.2765 7.225C14.9195 6.675 14.7409 6.01667 14.7409 5.25C14.7409 4.75 14.8345 4.275 15.0215 3.825C15.2085 3.375 15.472 2.98333 15.8121 2.65L18.3624 0L20.9128 2.65C21.2528 2.98333 21.5248 3.375 21.7289 3.825C21.9329 4.275 22.0349 4.75 22.0349 5.25C22.0349 6.01667 21.8479 6.675 21.4738 7.225C21.0998 7.775 20.5727 8.28333 19.8926 8.75V11.95H29.2268C30.077 11.95 30.7996 12.2417 31.3946 12.825C31.9897 13.4083 32.2872 14.1167 32.2872 14.95V24.05H33.6644C34.5145 24.05 35.2371 24.3417 35.8322 24.925C36.4273 25.5083 36.7248 26.2167 36.7248 27.05V38C36.7248 38.5667 36.5293 39.0417 36.1383 39.425C35.7472 39.8083 35.2626 40 34.6846 40H2.04027ZM7.49799 24.05H29.2268V14.95H7.49799V24.05ZM3.0604 37H33.6644V27.05H3.0604V37Z" fill="#65C6BB"/>
</svg>
