<svg width="61" height="11" viewBox="0 0 61 11" fill="none" xmlns="http://www.w3.org/2000/svg">
<path d="M3.95 2.58L5.9 7.7H6.8L3.95 0.65L1.1 7.7H2L3.95 2.58ZM6.75 8V9.1H7.5V7.2H0.4V9.1H1.15V8H6.75ZM9.05922 6.65C9.05922 6.46333 9.10255 6.30333 9.18922 6.17C9.27589 6.03667 9.40589 5.93333 9.57922 5.86C9.75922 5.78667 9.98255 5.75 10.2492 5.75C10.5426 5.75 10.8059 5.79 11.0392 5.87C11.2726 5.94333 11.5026 6.06 11.7292 6.22V5.75C11.6826 5.69 11.5959 5.61333 11.4692 5.52C11.3426 5.42 11.1726 5.33333 10.9592 5.26C10.7526 5.18 10.5026 5.14 10.2092 5.14C9.80922 5.14 9.46255 5.20333 9.16922 5.33C8.87589 5.45 8.64922 5.62333 8.48922 5.85C8.32922 6.07667 8.24922 6.35333 8.24922 6.68C8.24922 6.99333 8.31922 7.25667 8.45922 7.47C8.60589 7.67667 8.79922 7.83333 9.03922 7.94C9.27922 8.04667 9.54255 8.1 9.82922 8.1C10.1492 8.1 10.4392 8.04667 10.6992 7.94C10.9592 7.82667 11.1659 7.66667 11.3192 7.46C11.4792 7.24667 11.5592 6.99333 11.5592 6.7L11.3992 6.2C11.3992 6.48667 11.3392 6.71667 11.2192 6.89C11.1059 7.06333 10.9459 7.19 10.7392 7.27C10.5326 7.35 10.2959 7.39 10.0292 7.39C9.84922 7.39 9.68589 7.36333 9.53922 7.31C9.39255 7.25 9.27589 7.16667 9.18922 7.06C9.10255 6.94667 9.05922 6.81 9.05922 6.65ZM9.05922 4.48C9.13255 4.42667 9.23255 4.36333 9.35922 4.29C9.49255 4.21 9.64922 4.14333 9.82922 4.09C10.0092 4.03 10.2092 4 10.4292 4C10.6826 4 10.9059 4.06 11.0992 4.18C11.2992 4.29333 11.3992 4.46667 11.3992 4.7V8H12.1992V4.7C12.1992 4.4 12.1226 4.14667 11.9692 3.94C11.8226 3.73333 11.6159 3.57667 11.3492 3.47C11.0892 3.35667 10.7826 3.3 10.4292 3.3C10.0159 3.3 9.66255 3.36333 9.36922 3.49C9.07589 3.61667 8.84255 3.74333 8.66922 3.87L9.05922 4.48ZM12.8527 3.4V4.15H15.5527V3.4H12.8527ZM13.8027 3.6V8H14.6027V3.6H13.8027ZM16.7155 6.65C16.7155 6.46333 16.7588 6.30333 16.8455 6.17C16.9321 6.03667 17.0621 5.93333 17.2355 5.86C17.4155 5.78667 17.6388 5.75 17.9055 5.75C18.1988 5.75 18.4621 5.79 18.6955 5.87C18.9288 5.94333 19.1588 6.06 19.3855 6.22V5.75C19.3388 5.69 19.2521 5.61333 19.1255 5.52C18.9988 5.42 18.8288 5.33333 18.6155 5.26C18.4088 5.18 18.1588 5.14 17.8655 5.14C17.4655 5.14 17.1188 5.20333 16.8255 5.33C16.5321 5.45 16.3055 5.62333 16.1455 5.85C15.9855 6.07667 15.9055 6.35333 15.9055 6.68C15.9055 6.99333 15.9755 7.25667 16.1155 7.47C16.2621 7.67667 16.4555 7.83333 16.6955 7.94C16.9355 8.04667 17.1988 8.1 17.4855 8.1C17.8055 8.1 18.0955 8.04667 18.3555 7.94C18.6155 7.82667 18.8221 7.66667 18.9755 7.46C19.1355 7.24667 19.2155 6.99333 19.2155 6.7L19.0555 6.2C19.0555 6.48667 18.9955 6.71667 18.8755 6.89C18.7621 7.06333 18.6021 7.19 18.3955 7.27C18.1888 7.35 17.9521 7.39 17.6855 7.39C17.5055 7.39 17.3421 7.36333 17.1955 7.31C17.0488 7.25 16.9321 7.16667 16.8455 7.06C16.7588 6.94667 16.7155 6.81 16.7155 6.65ZM16.7155 4.48C16.7888 4.42667 16.8888 4.36333 17.0155 4.29C17.1488 4.21 17.3055 4.14333 17.4855 4.09C17.6655 4.03 17.8655 4 18.0855 4C18.3388 4 18.5621 4.06 18.7555 4.18C18.9555 4.29333 19.0555 4.46667 19.0555 4.7V8H19.8555V4.7C19.8555 4.4 19.7788 4.14667 19.6255 3.94C19.4788 3.73333 19.2721 3.57667 19.0055 3.47C18.7455 3.35667 18.4388 3.3 18.0855 3.3C17.6721 3.3 17.3188 3.36333 17.0255 3.49C16.7321 3.61667 16.4988 3.74333 16.3255 3.87L16.7155 4.48ZM24.677 5.6V6.02H26.007C26.1604 6.02 26.2904 6.03667 26.397 6.07C26.5104 6.09667 26.6004 6.14 26.667 6.2C26.7404 6.26 26.7937 6.32667 26.827 6.4C26.867 6.47333 26.887 6.55667 26.887 6.65C26.887 6.83 26.8137 6.98333 26.667 7.11C26.527 7.23667 26.307 7.3 26.007 7.3H24.677V8H26.207C26.7337 8 27.1104 7.88 27.337 7.64C27.5704 7.39333 27.687 7.09667 27.687 6.75C27.687 6.45 27.6137 6.21667 27.467 6.05C27.3204 5.88333 27.1204 5.76667 26.867 5.7C26.6137 5.63333 26.327 5.6 26.007 5.6H24.677ZM24.677 5.8H25.907C26.1937 5.8 26.4537 5.76 26.687 5.68C26.927 5.59333 27.1204 5.46667 27.267 5.3C27.4137 5.12667 27.487 4.91 27.487 4.65C27.487 4.35 27.4137 4.11 27.267 3.93C27.1204 3.74333 26.927 3.61 26.687 3.53C26.4537 3.44333 26.1937 3.4 25.907 3.4H24.677V4.1H25.907C26.147 4.1 26.337 4.15667 26.477 4.27C26.617 4.37667 26.687 4.52 26.687 4.7C26.687 4.78667 26.667 4.87 26.627 4.95C26.5937 5.02333 26.5437 5.09 26.477 5.15C26.4104 5.21 26.327 5.25667 26.227 5.29C26.1337 5.31667 26.027 5.33 25.907 5.33H24.677V5.8ZM24.207 3.4V8H25.007V3.4H24.207ZM28.3383 5.7C28.3383 6.16 28.4416 6.57333 28.6483 6.94C28.8616 7.3 29.1483 7.58333 29.5083 7.79C29.8683 7.99667 30.2716 8.1 30.7183 8.1C31.1716 8.1 31.5749 7.99667 31.9283 7.79C32.2883 7.58333 32.5716 7.3 32.7783 6.94C32.9916 6.57333 33.0983 6.16 33.0983 5.7C33.0983 5.23333 32.9916 4.82 32.7783 4.46C32.5716 4.1 32.2883 3.81667 31.9283 3.61C31.5749 3.40333 31.1716 3.3 30.7183 3.3C30.2716 3.3 29.8683 3.40333 29.5083 3.61C29.1483 3.81667 28.8616 4.1 28.6483 4.46C28.4416 4.82 28.3383 5.23333 28.3383 5.7ZM29.1483 5.7C29.1483 5.38 29.2149 5.09667 29.3483 4.85C29.4883 4.59667 29.6749 4.4 29.9083 4.26C30.1483 4.12 30.4183 4.05 30.7183 4.05C31.0183 4.05 31.2849 4.12 31.5183 4.26C31.7583 4.4 31.9449 4.59667 32.0783 4.85C32.2183 5.09667 32.2883 5.38 32.2883 5.7C32.2883 6.02 32.2183 6.30333 32.0783 6.55C31.9449 6.79667 31.7583 6.99333 31.5183 7.14C31.2849 7.28 31.0183 7.35 30.7183 7.35C30.4183 7.35 30.1483 7.28 29.9083 7.14C29.6749 6.99333 29.4883 6.79667 29.3483 6.55C29.2149 6.30333 29.1483 6.02 29.1483 5.7ZM35.8273 5.7C36.3539 5.7 36.7639 5.59 37.0573 5.37C37.3573 5.15 37.5073 4.87333 37.5073 4.54C37.5073 4.31333 37.4373 4.10667 37.2973 3.92C37.1639 3.73333 36.9773 3.58333 36.7373 3.47C36.4973 3.35667 36.2273 3.3 35.9273 3.3C35.6073 3.3 35.3206 3.36667 35.0673 3.5C34.8139 3.62667 34.6139 3.8 34.4673 4.02C34.3206 4.24 34.2473 4.48 34.2473 4.74H35.0573C35.0573 4.63333 35.0873 4.52667 35.1473 4.42C35.2073 4.30667 35.3006 4.21333 35.4273 4.14C35.5606 4.06 35.7273 4.02 35.9273 4.02C36.1673 4.02 36.3539 4.07333 36.4873 4.18C36.6206 4.28 36.6873 4.42 36.6873 4.6C36.6873 4.76667 36.6206 4.91 36.4873 5.03C36.3539 5.14333 36.1339 5.2 35.8273 5.2V5.7ZM35.9073 8.1C36.2339 8.1 36.5339 8.04333 36.8073 7.93C37.0806 7.81 37.2973 7.64333 37.4573 7.43C37.6239 7.21 37.7073 6.95 37.7073 6.65C37.7073 6.21667 37.5373 5.9 37.1973 5.7C36.8573 5.5 36.4006 5.4 35.8273 5.4V5.9C36.0606 5.9 36.2573 5.93 36.4173 5.99C36.5839 6.05 36.7073 6.13667 36.7873 6.25C36.8739 6.36333 36.9173 6.5 36.9173 6.66C36.9173 6.80667 36.8773 6.93667 36.7973 7.05C36.7173 7.16333 36.6006 7.25 36.4473 7.31C36.3006 7.37 36.1206 7.4 35.9073 7.4C35.5606 7.4 35.3106 7.31333 35.1573 7.14C35.0039 6.96667 34.9039 6.77 34.8573 6.55H34.0473C34.1006 6.99667 34.2873 7.36667 34.6073 7.66C34.9339 7.95333 35.3673 8.1 35.9073 8.1ZM39.3743 5.6V6.02H40.7043C40.8576 6.02 40.9876 6.03667 41.0943 6.07C41.2076 6.09667 41.2976 6.14 41.3643 6.2C41.4376 6.26 41.491 6.32667 41.5243 6.4C41.5643 6.47333 41.5843 6.55667 41.5843 6.65C41.5843 6.83 41.511 6.98333 41.3643 7.11C41.2243 7.23667 41.0043 7.3 40.7043 7.3H39.3743V8H40.9043C41.431 8 41.8076 7.88 42.0343 7.64C42.2676 7.39333 42.3843 7.09667 42.3843 6.75C42.3843 6.45 42.311 6.21667 42.1643 6.05C42.0176 5.88333 41.8176 5.76667 41.5643 5.7C41.311 5.63333 41.0243 5.6 40.7043 5.6H39.3743ZM39.3743 5.8H40.6043C40.891 5.8 41.151 5.76 41.3843 5.68C41.6243 5.59333 41.8176 5.46667 41.9643 5.3C42.111 5.12667 42.1843 4.91 42.1843 4.65C42.1843 4.35 42.111 4.11 41.9643 3.93C41.8176 3.74333 41.6243 3.61 41.3843 3.53C41.151 3.44333 40.891 3.4 40.6043 3.4H39.3743V4.1H40.6043C40.8443 4.1 41.0343 4.15667 41.1743 4.27C41.3143 4.37667 41.3843 4.52 41.3843 4.7C41.3843 4.78667 41.3643 4.87 41.3243 4.95C41.291 5.02333 41.241 5.09 41.1743 5.15C41.1076 5.21 41.0243 5.25667 40.9243 5.29C40.831 5.31667 40.7243 5.33 40.6043 5.33H39.3743V5.8ZM38.9043 3.4V8H39.7043V3.4H38.9043ZM44.1855 10.2V3.4H43.3855V10.2H44.1855ZM48.0355 5.7C48.0355 5.2 47.9322 4.77333 47.7255 4.42C47.5189 4.06 47.2422 3.78333 46.8955 3.59C46.5555 3.39667 46.1755 3.3 45.7555 3.3C45.3755 3.3 45.0389 3.39667 44.7455 3.59C44.4589 3.78333 44.2322 4.06 44.0655 4.42C43.9055 4.77333 43.8255 5.2 43.8255 5.7C43.8255 6.19333 43.9055 6.62 44.0655 6.98C44.2322 7.34 44.4589 7.61667 44.7455 7.81C45.0389 8.00333 45.3755 8.1 45.7555 8.1C46.1755 8.1 46.5555 8.00333 46.8955 7.81C47.2422 7.61667 47.5189 7.34 47.7255 6.98C47.9322 6.62 48.0355 6.19333 48.0355 5.7ZM47.2255 5.7C47.2255 6.05333 47.1522 6.35333 47.0055 6.6C46.8655 6.84667 46.6755 7.03333 46.4355 7.16C46.2022 7.28667 45.9422 7.35 45.6555 7.35C45.4222 7.35 45.1922 7.28667 44.9655 7.16C44.7389 7.03333 44.5522 6.84667 44.4055 6.6C44.2589 6.35333 44.1855 6.05333 44.1855 5.7C44.1855 5.34667 44.2589 5.04667 44.4055 4.8C44.5522 4.55333 44.7389 4.36667 44.9655 4.24C45.1922 4.11333 45.4222 4.05 45.6555 4.05C45.9422 4.05 46.2022 4.11333 46.4355 4.24C46.6755 4.36667 46.8655 4.55333 47.0055 4.8C47.1522 5.04667 47.2255 5.34667 47.2255 5.7ZM49.4987 6.65C49.4987 6.46333 49.542 6.30333 49.6287 6.17C49.7153 6.03667 49.8453 5.93333 50.0187 5.86C50.1987 5.78667 50.422 5.75 50.6887 5.75C50.982 5.75 51.2453 5.79 51.4787 5.87C51.712 5.94333 51.942 6.06 52.1687 6.22V5.75C52.122 5.69 52.0353 5.61333 51.9087 5.52C51.782 5.42 51.612 5.33333 51.3987 5.26C51.192 5.18 50.942 5.14 50.6487 5.14C50.2487 5.14 49.902 5.20333 49.6087 5.33C49.3153 5.45 49.0887 5.62333 48.9287 5.85C48.7687 6.07667 48.6887 6.35333 48.6887 6.68C48.6887 6.99333 48.7587 7.25667 48.8987 7.47C49.0453 7.67667 49.2387 7.83333 49.4787 7.94C49.7187 8.04667 49.982 8.1 50.2687 8.1C50.5887 8.1 50.8787 8.04667 51.1387 7.94C51.3987 7.82667 51.6053 7.66667 51.7587 7.46C51.9187 7.24667 51.9987 6.99333 51.9987 6.7L51.8387 6.2C51.8387 6.48667 51.7787 6.71667 51.6587 6.89C51.5453 7.06333 51.3853 7.19 51.1787 7.27C50.972 7.35 50.7353 7.39 50.4687 7.39C50.2887 7.39 50.1253 7.36333 49.9787 7.31C49.832 7.25 49.7153 7.16667 49.6287 7.06C49.542 6.94667 49.4987 6.81 49.4987 6.65ZM49.4987 4.48C49.572 4.42667 49.672 4.36333 49.7987 4.29C49.932 4.21 50.0887 4.14333 50.2687 4.09C50.4487 4.03 50.6487 4 50.8687 4C51.122 4 51.3453 4.06 51.5387 4.18C51.7387 4.29333 51.8387 4.46667 51.8387 4.7V8H52.6387V4.7C52.6387 4.4 52.562 4.14667 52.4087 3.94C52.262 3.73333 52.0553 3.57667 51.7887 3.47C51.5287 3.35667 51.222 3.3 50.8687 3.3C50.4553 3.3 50.102 3.36333 49.8087 3.49C49.5153 3.61667 49.282 3.74333 49.1087 3.87L49.4987 4.48ZM53.2922 3.4V4.15H55.9922V3.4H53.2922ZM54.2422 3.6V8H55.0422V3.6H54.2422ZM57.1549 6.65C57.1549 6.46333 57.1983 6.30333 57.2849 6.17C57.3716 6.03667 57.5016 5.93333 57.6749 5.86C57.8549 5.78667 58.0783 5.75 58.3449 5.75C58.6383 5.75 58.9016 5.79 59.1349 5.87C59.3683 5.94333 59.5983 6.06 59.8249 6.22V5.75C59.7783 5.69 59.6916 5.61333 59.5649 5.52C59.4383 5.42 59.2683 5.33333 59.0549 5.26C58.8483 5.18 58.5983 5.14 58.3049 5.14C57.9049 5.14 57.5583 5.20333 57.2649 5.33C56.9716 5.45 56.7449 5.62333 56.5849 5.85C56.4249 6.07667 56.3449 6.35333 56.3449 6.68C56.3449 6.99333 56.4149 7.25667 56.5549 7.47C56.7016 7.67667 56.8949 7.83333 57.1349 7.94C57.3749 8.04667 57.6383 8.1 57.9249 8.1C58.2449 8.1 58.5349 8.04667 58.7949 7.94C59.0549 7.82667 59.2616 7.66667 59.4149 7.46C59.5749 7.24667 59.6549 6.99333 59.6549 6.7L59.4949 6.2C59.4949 6.48667 59.4349 6.71667 59.3149 6.89C59.2016 7.06333 59.0416 7.19 58.8349 7.27C58.6283 7.35 58.3916 7.39 58.1249 7.39C57.9449 7.39 57.7816 7.36333 57.6349 7.31C57.4883 7.25 57.3716 7.16667 57.2849 7.06C57.1983 6.94667 57.1549 6.81 57.1549 6.65ZM57.1549 4.48C57.2283 4.42667 57.3283 4.36333 57.4549 4.29C57.5883 4.21 57.7449 4.14333 57.9249 4.09C58.1049 4.03 58.3049 4 58.5249 4C58.7783 4 59.0016 4.06 59.1949 4.18C59.3949 4.29333 59.4949 4.46667 59.4949 4.7V8H60.2949V4.7C60.2949 4.4 60.2183 4.14667 60.0649 3.94C59.9183 3.73333 59.7116 3.57667 59.4449 3.47C59.1849 3.35667 58.8783 3.3 58.5249 3.3C58.1116 3.3 57.7583 3.36333 57.4649 3.49C57.1716 3.61667 56.9383 3.74333 56.7649 3.87L57.1549 4.48Z" fill="#7C7C7C"/>
</svg>
