<svg width="130" height="54" viewBox="0 0 130 54" fill="none" xmlns="http://www.w3.org/2000/svg">
<rect y="1" width="130" height="53" rx="10" fill="#BCFFF7"/>
<path d="M18.44 42H12.12L18.24 28L12.12 14H18.4L21.96 22.4H22.28L25.84 14H32.2L26.08 28L32.2 42H25.88L22.36 33.6H22.04L18.44 42ZM40.6434 42.2C38.9368 42.2 37.5234 41.6533 36.4034 40.56C35.2834 39.4667 34.7234 38.08 34.7234 36.4V19.6C34.7234 17.92 35.2834 16.5333 36.4034 15.44C37.5234 14.3467 38.9368 13.8 40.6434 13.8H46.1234C47.8301 13.8 49.2301 14.3467 50.3234 15.44C51.4434 16.5333 52.0034 17.92 52.0034 19.6V21.72H46.2834V20.16C46.2834 19.92 46.2034 19.7333 46.0434 19.6C45.9101 19.4667 45.7234 19.4 45.4834 19.4H41.2434C40.7368 19.4 40.4834 19.6533 40.4834 20.16V35.84C40.4834 36.3467 40.7368 36.6 41.2434 36.6H45.4834C45.7234 36.6 45.9101 36.5333 46.0434 36.4C46.2034 36.2667 46.2834 36.08 46.2834 35.84V34.28H52.0034V36.4C52.0034 38.08 51.4434 39.4667 50.3234 40.56C49.2301 41.6533 47.8301 42.2 46.1234 42.2H40.6434ZM61.8925 42C60.2125 42 58.8125 41.4533 57.6925 40.36C56.5725 39.2667 56.0125 37.88 56.0125 36.2V31.04C56.0125 29.36 56.5725 27.9733 57.6925 26.88C58.8125 25.76 60.2125 25.2 61.8925 25.2H67.5325V20.2C67.5325 19.6667 67.2792 19.4 66.7725 19.4H62.4525C62.2392 19.4 62.0525 19.4667 61.8925 19.6C61.7592 19.7333 61.6925 19.9333 61.6925 20.2V21.72H56.0125V19.6C56.0125 17.92 56.5725 16.5333 57.6925 15.44C58.8125 14.3467 60.2125 13.8 61.8925 13.8H67.2525C68.9325 13.8 70.3325 14.3467 71.4525 15.44C72.5725 16.5333 73.1325 17.92 73.1325 19.6V42H61.8925ZM67.5325 36.4V30.8H62.3325C62.1192 30.8 61.9458 30.8667 61.8125 31C61.6792 31.1333 61.6125 31.32 61.6125 31.56V35.68C61.6125 35.8933 61.6792 36.0667 61.8125 36.2C61.9458 36.3333 62.1192 36.4 62.3325 36.4H67.5325ZM97.2513 42H90.8513L84.4113 29.88H84.0513V42H78.1313V14H89.5313C91.2113 14 92.6113 14.5467 93.7313 15.64C94.8779 16.7333 95.4513 18.12 95.4513 19.8V24.76C95.4513 26.2 95.0246 27.4267 94.1713 28.44C93.3179 29.4533 92.2246 30.1067 90.8913 30.4L97.2513 42ZM89.1313 25.2C89.3446 25.2 89.5179 25.1333 89.6513 25C89.8113 24.8667 89.8913 24.68 89.8913 24.44V20.36C89.8913 20.12 89.8113 19.9333 89.6513 19.8C89.5179 19.6667 89.3446 19.6 89.1313 19.6H83.7713V25.2H89.1313ZM105.361 42.2C104.267 42.2 103.267 41.9467 102.361 41.44C101.454 40.9333 100.734 40.24 100.201 39.36C99.694 38.48 99.4406 37.4933 99.4406 36.4V34.28H105.161V35.8C105.161 36.04 105.227 36.24 105.361 36.4C105.521 36.5333 105.707 36.6 105.921 36.6H110.121C110.787 36.6 111.121 36.2667 111.121 35.6V34.64C111.121 34.1333 110.921 33.7333 110.521 33.44L103.361 27.96C102.027 26.9467 101.054 26.0133 100.441 25.16C99.854 24.28 99.5606 23.3333 99.5606 22.32V19.6C99.5606 17.92 100.107 16.5333 101.201 15.44C102.321 14.3467 103.747 13.8 105.481 13.8H110.801C112.481 13.8 113.881 14.3467 115.001 15.44C116.147 16.5333 116.721 17.92 116.721 19.6V21.68H111.001V20.2C111.001 19.96 110.921 19.7733 110.761 19.64C110.627 19.48 110.454 19.4 110.241 19.4H106.161C105.494 19.4 105.161 19.7333 105.161 20.4V21.28C105.161 21.7867 105.361 22.1867 105.761 22.48L112.841 27.88C114.174 28.8933 115.147 29.8267 115.761 30.68C116.401 31.5067 116.721 32.4 116.721 33.36V36.4C116.721 38.08 116.161 39.4667 115.041 40.56C113.947 41.6533 112.534 42.2 110.801 42.2H105.361Z" fill="#65C6BB"/>
</svg>
