<svg width="16" height="9" viewBox="0 0 16 9" fill="none" xmlns="http://www.w3.org/2000/svg">
<path d="M1.34375 7.34375H14.6562V8.65625H1.34375V7.34375ZM2.09375 4.625L2.65625 3.65625L3.21875 4.625L4.09375 4.125L3.53125 3.15625H4.65625V2.15625H3.53125L4.09375 1.15625L3.21875 0.65625L2.65625 1.65625L2.09375 0.65625L1.21875 1.15625L1.8125 2.15625H0.65625V3.15625H1.8125L1.21875 4.125L2.09375 4.625ZM6.5625 4.125L7.4375 4.625L8 3.65625L8.5625 4.625L9.4375 4.125L8.875 3.15625H10V2.15625H8.875L9.4375 1.15625L8.5625 0.65625L8 1.65625L7.4375 0.65625L6.5625 1.15625L7.125 2.15625H6V3.15625H7.125L6.5625 4.125ZM15.3438 2.15625H14.1875L14.7812 1.15625L13.9062 0.65625L13.3438 1.65625L12.7812 0.65625L11.9062 1.15625L12.4688 2.15625H11.3438V3.15625H12.4688L11.9062 4.125L12.7812 4.625L13.3438 3.65625L13.9062 4.625L14.7812 4.125L14.1875 3.15625H15.3438V2.15625Z" fill="#B5B5B5"/>
</svg>
