<svg width="9" height="16" viewBox="0 0 9 16" fill="none" xmlns="http://www.w3.org/2000/svg">
<path d="M7.65625 12V2.65625H1.65625V12H7.65625ZM3.9375 14.375C4.14583 14.5625 4.38542 14.6562 4.65625 14.6562C4.92708 14.6562 5.15625 14.5625 5.34375 14.375C5.55208 14.1667 5.65625 13.9271 5.65625 13.6562C5.65625 13.3854 5.55208 13.1562 5.34375 12.9688C5.15625 12.7604 4.92708 12.6562 4.65625 12.6562C4.38542 12.6562 4.14583 12.7604 3.9375 12.9688C3.75 13.1562 3.65625 13.3854 3.65625 13.6562C3.65625 13.9271 3.75 14.1667 3.9375 14.375ZM7.34375 0.65625C7.80208 0.65625 8.1875 0.822917 8.5 1.15625C8.83333 1.48958 9 1.88542 9 2.34375V13.6562C9 14.1146 8.83333 14.5104 8.5 14.8438C8.1875 15.1771 7.80208 15.3438 7.34375 15.3438H2C1.54167 15.3438 1.14583 15.1771 0.8125 14.8438C0.5 14.5104 0.34375 14.1146 0.34375 13.6562V2.34375C0.34375 1.88542 0.5 1.48958 0.8125 1.15625C1.14583 0.822917 1.54167 0.65625 2 0.65625H7.34375Z" fill="#B5B5B5"/>
</svg>
