<svg width="70" height="11" viewBox="0 0 70 11" fill="none" xmlns="http://www.w3.org/2000/svg">
<path d="M3.95 2.58L5.9 7.7H6.8L3.95 0.65L1.1 7.7H2L3.95 2.58ZM6.75 8V9.1H7.5V7.2H0.4V9.1H1.15V8H6.75ZM9.05922 6.65C9.05922 6.46333 9.10255 6.30333 9.18922 6.17C9.27589 6.03667 9.40589 5.93333 9.57922 5.86C9.75922 5.78667 9.98255 5.75 10.2492 5.75C10.5426 5.75 10.8059 5.79 11.0392 5.87C11.2726 5.94333 11.5026 6.06 11.7292 6.22V5.75C11.6826 5.69 11.5959 5.61333 11.4692 5.52C11.3426 5.42 11.1726 5.33333 10.9592 5.26C10.7526 5.18 10.5026 5.14 10.2092 5.14C9.80922 5.14 9.46255 5.20333 9.16922 5.33C8.87589 5.45 8.64922 5.62333 8.48922 5.85C8.32922 6.07667 8.24922 6.35333 8.24922 6.68C8.24922 6.99333 8.31922 7.25667 8.45922 7.47C8.60589 7.67667 8.79922 7.83333 9.03922 7.94C9.27922 8.04667 9.54255 8.1 9.82922 8.1C10.1492 8.1 10.4392 8.04667 10.6992 7.94C10.9592 7.82667 11.1659 7.66667 11.3192 7.46C11.4792 7.24667 11.5592 6.99333 11.5592 6.7L11.3992 6.2C11.3992 6.48667 11.3392 6.71667 11.2192 6.89C11.1059 7.06333 10.9459 7.19 10.7392 7.27C10.5326 7.35 10.2959 7.39 10.0292 7.39C9.84922 7.39 9.68589 7.36333 9.53922 7.31C9.39255 7.25 9.27589 7.16667 9.18922 7.06C9.10255 6.94667 9.05922 6.81 9.05922 6.65ZM9.05922 4.48C9.13255 4.42667 9.23255 4.36333 9.35922 4.29C9.49255 4.21 9.64922 4.14333 9.82922 4.09C10.0092 4.03 10.2092 4 10.4292 4C10.6826 4 10.9059 4.06 11.0992 4.18C11.2992 4.29333 11.3992 4.46667 11.3992 4.7V8H12.1992V4.7C12.1992 4.4 12.1226 4.14667 11.9692 3.94C11.8226 3.73333 11.6159 3.57667 11.3492 3.47C11.0892 3.35667 10.7826 3.3 10.4292 3.3C10.0159 3.3 9.66255 3.36333 9.36922 3.49C9.07589 3.61667 8.84255 3.74333 8.66922 3.87L9.05922 4.48ZM12.8527 3.4V4.15H15.5527V3.4H12.8527ZM13.8027 3.6V8H14.6027V3.6H13.8027ZM16.7155 6.65C16.7155 6.46333 16.7588 6.30333 16.8455 6.17C16.9321 6.03667 17.0621 5.93333 17.2355 5.86C17.4155 5.78667 17.6388 5.75 17.9055 5.75C18.1988 5.75 18.4621 5.79 18.6955 5.87C18.9288 5.94333 19.1588 6.06 19.3855 6.22V5.75C19.3388 5.69 19.2521 5.61333 19.1255 5.52C18.9988 5.42 18.8288 5.33333 18.6155 5.26C18.4088 5.18 18.1588 5.14 17.8655 5.14C17.4655 5.14 17.1188 5.20333 16.8255 5.33C16.5321 5.45 16.3055 5.62333 16.1455 5.85C15.9855 6.07667 15.9055 6.35333 15.9055 6.68C15.9055 6.99333 15.9755 7.25667 16.1155 7.47C16.2621 7.67667 16.4555 7.83333 16.6955 7.94C16.9355 8.04667 17.1988 8.1 17.4855 8.1C17.8055 8.1 18.0955 8.04667 18.3555 7.94C18.6155 7.82667 18.8221 7.66667 18.9755 7.46C19.1355 7.24667 19.2155 6.99333 19.2155 6.7L19.0555 6.2C19.0555 6.48667 18.9955 6.71667 18.8755 6.89C18.7621 7.06333 18.6021 7.19 18.3955 7.27C18.1888 7.35 17.9521 7.39 17.6855 7.39C17.5055 7.39 17.3421 7.36333 17.1955 7.31C17.0488 7.25 16.9321 7.16667 16.8455 7.06C16.7588 6.94667 16.7155 6.81 16.7155 6.65ZM16.7155 4.48C16.7888 4.42667 16.8888 4.36333 17.0155 4.29C17.1488 4.21 17.3055 4.14333 17.4855 4.09C17.6655 4.03 17.8655 4 18.0855 4C18.3388 4 18.5621 4.06 18.7555 4.18C18.9555 4.29333 19.0555 4.46667 19.0555 4.7V8H19.8555V4.7C19.8555 4.4 19.7788 4.14667 19.6255 3.94C19.4788 3.73333 19.2721 3.57667 19.0055 3.47C18.7455 3.35667 18.4388 3.3 18.0855 3.3C17.6721 3.3 17.3188 3.36333 17.0255 3.49C16.7321 3.61667 16.4988 3.74333 16.3255 3.87L16.7155 4.48ZM27.957 3.4H24.207V8H25.007V4.15H27.157V8H27.957V3.4ZM29.0609 5.7C29.0609 6.16 29.1643 6.57333 29.3709 6.94C29.5843 7.3 29.8709 7.58333 30.2309 7.79C30.5909 7.99667 30.9943 8.1 31.4409 8.1C31.8943 8.1 32.2976 7.99667 32.6509 7.79C33.0109 7.58333 33.2943 7.3 33.5009 6.94C33.7143 6.57333 33.8209 6.16 33.8209 5.7C33.8209 5.23333 33.7143 4.82 33.5009 4.46C33.2943 4.1 33.0109 3.81667 32.6509 3.61C32.2976 3.40333 31.8943 3.3 31.4409 3.3C30.9943 3.3 30.5909 3.40333 30.2309 3.61C29.8709 3.81667 29.5843 4.1 29.3709 4.46C29.1643 4.82 29.0609 5.23333 29.0609 5.7ZM29.8709 5.7C29.8709 5.38 29.9376 5.09667 30.0709 4.85C30.2109 4.59667 30.3976 4.4 30.6309 4.26C30.8709 4.12 31.1409 4.05 31.4409 4.05C31.7409 4.05 32.0076 4.12 32.2409 4.26C32.4809 4.4 32.6676 4.59667 32.8009 4.85C32.9409 5.09667 33.0109 5.38 33.0109 5.7C33.0109 6.02 32.9409 6.30333 32.8009 6.55C32.6676 6.79667 32.4809 6.99333 32.2409 7.14C32.0076 7.28 31.7409 7.35 31.4409 7.35C31.1409 7.35 30.8709 7.28 30.6309 7.14C30.3976 6.99333 30.2109 6.79667 30.0709 6.55C29.9376 6.30333 29.8709 6.02 29.8709 5.7ZM38.9499 3.4H34.9999V6.4C34.9999 6.72667 34.9266 6.95333 34.7799 7.08C34.6399 7.20667 34.4699 7.27 34.2699 7.27V8C34.6166 8 34.9033 7.94333 35.1299 7.83C35.3566 7.71 35.5233 7.53333 35.6299 7.3C35.7433 7.06 35.7999 6.76 35.7999 6.4V4.15H38.1499V8H38.9499V3.4ZM44.1461 3.4H43.2461L41.8261 6.96L42.1561 7L40.6961 3.4H39.7461L41.5061 7.35L40.2461 10.2H41.1461L44.1461 3.4ZM46.4504 6.6H48.0204V5.85H46.4504V6.6ZM47.4504 3.4V8H48.2504V3.4H47.4504ZM45.4504 3.4H44.6504V4.72C44.6504 5.16667 44.7037 5.53 44.8104 5.81C44.9171 6.08333 45.1004 6.28333 45.3604 6.41C45.6271 6.53667 45.9904 6.6 46.4504 6.6V5.85C46.1971 5.85 45.9971 5.81333 45.8504 5.74C45.7037 5.66 45.6004 5.53667 45.5404 5.37C45.4804 5.20333 45.4504 4.98667 45.4504 4.72V3.4ZM49.8639 5.9H53.7939C53.8006 5.86 53.8039 5.82 53.8039 5.78C53.8039 5.74 53.8039 5.7 53.8039 5.66C53.8039 5.17333 53.7139 4.75667 53.5339 4.41C53.3539 4.05667 53.1006 3.78333 52.7739 3.59C52.4472 3.39667 52.0672 3.3 51.6339 3.3C51.2406 3.3 50.8839 3.38 50.5639 3.54C50.2506 3.7 49.9939 3.92333 49.7939 4.21C49.5939 4.49667 49.4606 4.83 49.3939 5.21C49.3806 5.29 49.3706 5.37 49.3639 5.45C49.3572 5.53 49.3539 5.61333 49.3539 5.7C49.3539 6.16 49.4472 6.57333 49.6339 6.94C49.8272 7.3 50.0872 7.58333 50.4139 7.79C50.7472 7.99667 51.1206 8.1 51.5339 8.1C51.9339 8.1 52.2672 8.05333 52.5339 7.96C52.8006 7.86 53.0272 7.72333 53.2139 7.55C53.4006 7.37 53.5706 7.16333 53.7239 6.93L53.0739 6.52C52.9739 6.68667 52.8539 6.83333 52.7139 6.96C52.5739 7.08 52.4139 7.17667 52.2339 7.25C52.0606 7.31667 51.8606 7.35 51.6339 7.35C51.3339 7.35 51.0739 7.28667 50.8539 7.16C50.6339 7.03333 50.4639 6.84667 50.3439 6.6C50.2239 6.35333 50.1639 6.05333 50.1639 5.7L50.1839 5.4C50.1839 5.11333 50.2472 4.86667 50.3739 4.66C50.5072 4.44667 50.6839 4.28333 50.9039 4.17C51.1239 4.05667 51.3672 4 51.6339 4C51.9006 4 52.1239 4.05333 52.3039 4.16C52.4906 4.26 52.6339 4.40333 52.7339 4.59C52.8406 4.77 52.9072 4.98 52.9339 5.22H49.8639V5.9ZM55.3704 5.95H58.7704V5.2H55.3704V5.95ZM58.2504 3.4V8H59.0504V3.4H58.2504ZM54.9004 3.4V8H55.7004V3.4H54.9004ZM64.4047 4.2L64.4547 3.05L60.6547 7.2L60.6047 8.35L64.4047 4.2ZM61.4047 3.4H60.6047V8.35L61.4047 7.25V3.4ZM64.4547 3.05L63.6547 4.15V8H64.4547V3.05ZM66.6639 8L68.3639 5.6H67.4839L65.7839 8H66.6639ZM69.5839 8V3.4H68.7839V8H69.5839ZM69.1139 5.46H67.6839C67.4906 5.46 67.3272 5.43667 67.1939 5.39C67.0672 5.33667 66.9706 5.26 66.9039 5.16C66.8372 5.06 66.8039 4.93333 66.8039 4.78C66.8039 4.62667 66.8372 4.5 66.9039 4.4C66.9706 4.3 67.0672 4.22667 67.1939 4.18C67.3272 4.12667 67.4906 4.1 67.6839 4.1H69.1139V3.4H67.6839C67.3706 3.4 67.0839 3.44667 66.8239 3.54C66.5706 3.63333 66.3706 3.78 66.2239 3.98C66.0772 4.18 66.0039 4.44667 66.0039 4.78C66.0039 5.10667 66.0772 5.37333 66.2239 5.58C66.3706 5.78 66.5706 5.92667 66.8239 6.02C67.0839 6.11333 67.3706 6.16 67.6839 6.16H69.1139V5.46Z" fill="#7C7C7C"/>
</svg>
